<svg height="464pt" viewBox="0 -60 464 464" width="464pt" xmlns="http://www.w3.org/2000/svg"><path d="m464 16v256h-464v-256c.222656-8.742188 7.257812-15.777344 16-16h432c8.742188.222656 15.777344 7.257812 16 16zm0 0" fill="#cbcbcb"/><path d="m272 56h160v160h-160zm0 0" fill="#007579"/><path d="m24 312h48v32h-48zm0 0" fill="#957856"/><path d="m392 312h48v32h-48zm0 0" fill="#957856"/><path d="m0 312h464v-40h-464zm0 0" fill="#808285"/><path d="m32 120h40v32h-40zm0 0" fill="#cc7400"/><path d="m120 240v-40h32v40zm0 0" fill="#cc7400"/><path d="m240 152h-40v-32h40zm0 0" fill="#cc7400"/><path d="m152 32v40h-32v-40zm0 0" fill="#cc7400"/><path d="m216 136c0 44.183594-35.816406 80-80 80s-80-35.816406-80-80 35.816406-80 80-80 80 35.816406 80 80zm0 0" fill="#ff9811"/><path d="m144 128h-16c-4.417969 0-8-3.582031-8-8s3.582031-8 8-8h16c4.417969 0 8 3.582031 8 8h16c0-13.253906-10.746094-24-24-24v-8h-16v8c-13.253906 0-24 10.746094-24 24s10.746094 24 24 24h16c4.417969 0 8 3.582031 8 8s-3.582031 8-8 8h-16c-4.417969 0-8-3.582031-8-8h-16c0 13.253906 10.746094 24 24 24v8h16v-8c13.253906 0 24-10.746094 24-24s-10.746094-24-24-24zm0 0" fill="#f9ed32"/><g fill="#4e901e"><path d="m304 80h16c4.417969 0 8 3.582031 8 8v16c0 4.417969-3.582031 8-8 8h-16c-4.417969 0-8-3.582031-8-8v-16c0-4.417969 3.582031-8 8-8zm0 0"/><path d="m344 80h16c4.417969 0 8 3.582031 8 8v16c0 4.417969-3.582031 8-8 8h-16c-4.417969 0-8-3.582031-8-8v-16c0-4.417969 3.582031-8 8-8zm0 0"/><path d="m384 80h16c4.417969 0 8 3.582031 8 8v16c0 4.417969-3.582031 8-8 8h-16c-4.417969 0-8-3.582031-8-8v-16c0-4.417969 3.582031-8 8-8zm0 0"/><path d="m304 120h16c4.417969 0 8 3.582031 8 8v16c0 4.417969-3.582031 8-8 8h-16c-4.417969 0-8-3.582031-8-8v-16c0-4.417969 3.582031-8 8-8zm0 0"/><path d="m344 120h16c4.417969 0 8 3.582031 8 8v16c0 4.417969-3.582031 8-8 8h-16c-4.417969 0-8-3.582031-8-8v-16c0-4.417969 3.582031-8 8-8zm0 0"/><path d="m384 120h16c4.417969 0 8 3.582031 8 8v16c0 4.417969-3.582031 8-8 8h-16c-4.417969 0-8-3.582031-8-8v-16c0-4.417969 3.582031-8 8-8zm0 0"/><path d="m304 160h16c4.417969 0 8 3.582031 8 8v16c0 4.417969-3.582031 8-8 8h-16c-4.417969 0-8-3.582031-8-8v-16c0-4.417969 3.582031-8 8-8zm0 0"/><path d="m344 160h16c4.417969 0 8 3.582031 8 8v16c0 4.417969-3.582031 8-8 8h-16c-4.417969 0-8-3.582031-8-8v-16c0-4.417969 3.582031-8 8-8zm0 0"/><path d="m384 160h16c4.417969 0 8 3.582031 8 8v16c0 4.417969-3.582031 8-8 8h-16c-4.417969 0-8-3.582031-8-8v-16c0-4.417969 3.582031-8 8-8zm0 0"/></g><path d="m24 312h48v8h-48zm0 0" fill="#806749"/><path d="m392 312h48v8h-48zm0 0" fill="#806749"/><path d="m0 304h464v8h-464zm0 0" fill="#6d6e71"/></svg>