<svg id="Capa_1" enable-background="new 0 0 512 512" height="512" viewBox="0 0 512 512" width="512" xmlns="http://www.w3.org/2000/svg"><g><g><path d="m30 456.469h-30v-58.697l30-6z" fill="#754727"/></g><g><path d="m512 456.469h-30v-64.697l30 6z" fill="#492d1a"/></g><g><path d="m63.639 55.531c-17.6 0-31.867 14.267-31.867 31.867v133.32l224.228 10 10-107.983-10-67.203h-192.361z" fill="#d19a75"/><path d="m448.361 55.531h-192.361v175.187l224.228-10v-133.32c0-17.599-14.267-31.867-31.867-31.867z" fill="#c47e4e"/></g><path d="m95.461 210.718v-31.867c0-17.6 14.267-31.867 31.867-31.867h96.805c17.6 0 31.867 14.267 31.867 31.867l10 23.149-10 18.718z" fill="#fff5f5"/><path d="m256 220.718v-41.867c0-17.6 14.267-31.867 31.867-31.867h96.805c17.6 0 31.867 14.267 31.867 31.867v31.867z" fill="#ebe1dc"/><g><path d="m37.49 210.718c-17.6 0-31.867 14.267-31.867 31.867 0 17.6 14.267 31.867 31.867 31.867l218.51 10 10-37.786-10-35.949h-218.51z" fill="#ebe1dc"/><path d="m474.51 210.718h-218.51v73.734l218.51-10c17.6 0 31.867-14.267 31.867-31.867.001-17.6-14.267-31.867-31.867-31.867z" fill="#c8beb9"/></g><g><path d="m0 274.452v123.32h256l10-61.66-10-61.66z" fill="#d19a75"/><path d="m256 274.452h256v123.319h-256z" fill="#c47e4e"/></g></g></svg>