<?xml version="1.0" encoding="iso-8859-1"?>
<!-- Generator: Adobe Illustrator 19.0.0, SVG Export Plug-In . SVG Version: 6.00 Build 0)  -->
<svg version="1.1" id="Capa_1" xmlns="http://www.w3.org/2000/svg" xmlns:xlink="http://www.w3.org/1999/xlink" x="0px" y="0px"
	 viewBox="0 0 512 512" style="enable-background:new 0 0 512 512;" xml:space="preserve">
<polyline style="fill:#4DAAF5;" points="145.067,76.8 8.533,76.8 8.533,503.467 384,503.467 384,76.8 247.467,76.8 "/>
<rect x="42.667" y="110.933" style="fill:#B7E5FF;" width="307.2" height="358.4"/>
<path style="fill:#FEC007;" d="M247.467,110.933v-51.2c0-28.279-22.921-51.2-51.2-51.2s-51.2,22.921-51.2,51.2v51.2h-51.2v51.2
	h204.8v-51.2H247.467z M196.267,42.667c9.429,0,17.067,7.637,17.067,17.067S205.696,76.8,196.267,76.8S179.2,69.163,179.2,59.733
	S186.837,42.667,196.267,42.667z"/>
<rect x="418.133" y="256" style="fill:#B7E5FF;" width="51.2" height="204.8"/>
<g>
	<polygon style="fill:#4DAAF5;" points="418.133,469.333 443.733,494.933 469.333,469.333 469.333,460.8 418.133,460.8 	"/>
	<path style="fill:#4DAAF5;" d="M452.267,110.933H435.2c-9.429,0-17.067,7.637-17.067,17.067v34.133h51.2V128
		C469.333,118.571,461.696,110.933,452.267,110.933z"/>
	<rect x="418.133" y="162.133" style="fill:#4DAAF5;" width="51.2" height="93.867"/>
</g>
<path d="M196.267,34.133c-14.14,0-25.6,11.46-25.6,25.6s11.46,25.6,25.6,25.6s25.6-11.46,25.6-25.6S210.406,34.133,196.267,34.133z
	 M196.267,68.267c-4.71,0-8.533-3.823-8.533-8.533s3.823-8.533,8.533-8.533s8.533,3.823,8.533,8.533S200.977,68.267,196.267,68.267z
	"/>
<path d="M256,59.733C256,26.743,229.257,0,196.267,0s-59.733,26.743-59.733,59.733v8.533H0V512h392.533V68.267H256V59.733z
	 M307.2,119.467h34.133V460.8H51.2V119.467h34.133v51.2H307.2V119.467z M290.133,153.6H102.4v-34.133h187.733V153.6z M153.6,59.733
	c0-23.561,19.106-42.667,42.667-42.667s42.667,19.106,42.667,42.667V102.4H153.6V59.733z M375.467,85.333v409.6h-358.4v-409.6
	h119.467V102.4h-102.4v375.467H358.4V102.4H256V85.333H375.467z"/>
<polygon points="187.733,238.933 204.8,238.933 204.8,221.867 221.867,221.867 221.867,204.8 204.8,204.8 204.8,187.733 
	187.733,187.733 187.733,204.8 170.667,204.8 170.667,221.867 187.733,221.867 "/>
<rect x="119.467" y="273.067" width="187.733" height="17.067"/>
<rect x="85.333" y="307.2" width="221.867" height="17.067"/>
<rect x="85.333" y="341.333" width="221.867" height="17.067"/>
<rect x="85.333" y="375.467" width="221.867" height="17.067"/>
<rect x="85.333" y="409.6" width="153.6" height="17.067"/>
<path d="M477.867,153.6V128c0-14.14-11.46-25.6-25.6-25.6H435.2c-14.14,0-25.6,11.46-25.6,25.6v344.866l25.6,25.6V512h17.067
	v-13.534l25.6-25.6v-302.2h17.067v93.867H512V153.6H477.867z M426.667,128c0-4.71,3.823-8.533,8.533-8.533h17.067
	c4.71,0,8.533,3.823,8.533,8.533v25.6h-34.133V128z M426.667,452.267V264.533H460.8v187.733H426.667z M457.267,469.333
	l-13.534,13.534l-13.534-13.534H457.267z M460.8,247.467h-34.133v-76.8H460.8V247.467z"/>
<g>
</g>
<g>
</g>
<g>
</g>
<g>
</g>
<g>
</g>
<g>
</g>
<g>
</g>
<g>
</g>
<g>
</g>
<g>
</g>
<g>
</g>
<g>
</g>
<g>
</g>
<g>
</g>
<g>
</g>
</svg>
